<svg xmlns="http://www.w3.org/2000/svg" id="Layer_1" data-name="Layer 1" viewBox="0 0 465.69 512"><defs><style>.cls-2{fill:#ffc000;}</style></defs><path class="cls-1" d="M232,0c2.83,2.26,6,4.22,8.44,6.81q51.65,54,103.17,108.15a18.12,18.12,0,0,1,5.42,13.4c-.12,29.16-.06,58.33-.06,87.49v5.05c9.66,3.38,19.18,5.92,28,9.94,47.33,21.45,77.44,57.7,86.19,108.84,9.75,57.05-9.33,104.7-54.44,141.23-22.44,18.17-48.58,27.9-77.38,30.42A12.75,12.75,0,0,0,329,512H307a14.79,14.79,0,0,0-2.77-.85c-46.37-5.28-82.33-27.63-108.23-66.26-2.17-3.24-4.4-4.16-8.07-4.15q-63.48.17-127,0a74.78,74.78,0,0,1-15.87-1.45c-27.23-6-45-28.55-45.07-57q0-111.5,0-222.95C0,125.69-.1,92,0,58.34c.09-20,7.9-36.59,24.54-47.7C32.11,5.67,41.5,3.47,50,0ZM201.87,276.51H91.54a50.34,50.34,0,0,1-5.49-.17c-6.28-.69-10.08-4.55-10.22-10.22s3.5-9.83,9.64-10.8A35.19,35.19,0,0,1,91,255.1c41.33,0,82.66-.07,124,.08A18.07,18.07,0,0,0,227.16,251c25.14-19.93,53.73-30.94,85.91-32.18,4.73-.18,9.48,0,14.18,0V135.56h-5.87c-17.17,0-34.34.12-51.5-.07a62.35,62.35,0,0,1-15.34-1.6c-22.31-6-35.47-23.46-35.64-47.08-.15-20,0-40,0-60,0-1.74-.17-3.49-.26-5.3-1.77-.11-2.92-.24-4.07-.24q-77.5,0-155,.06A42.77,42.77,0,0,0,48.2,22.77C31,27.59,21.32,41.2,21.32,60.73q-.06,159.75,0,319.49a47.51,47.51,0,0,0,1.45,12.34c4.7,17.39,18,26.82,37.85,26.85q58.25.12,116.5,0c1.57,0,3.14-.16,5.4-.28a150.17,150.17,0,0,1-9.93-43.8c-1.18-14.87.37-29.46,3.46-44.4H90.64c-9.88,0-14.88-3.66-14.82-10.82.06-7,4.88-10.51,14.54-10.52,29.16,0,58.33-.07,87.5.09,3.84,0,5.85-1,7.51-4.67,2.78-6.2,6.38-12,9.78-17.95C197,283.81,199.18,280.71,201.87,276.51ZM318.78,490.8c68.65.41,125-55.81,125.47-125.1.44-68.79-55.59-125.22-124.8-125.69-68.95-.46-125.58,56-125.75,125.27C193.53,434.11,249.62,490.39,318.78,490.8Zm-5.86-376.7L240.13,37.5c0,18.17-.33,34.81.1,51.43.38,14.5,11.3,24.92,25.74,25.12,15.13.21,30.27,0,46.95,0Z" transform="translate(0.04)"/><path class="cls-2" d="M318.78,490.8c-69.16-.41-125.25-56.69-125.08-125.52C193.87,296,250.5,239.55,319.45,240c69.21.47,125.24,56.9,124.8,125.69C443.81,435,387.43,491.21,318.78,490.8Zm48.38-166.46a48,48,0,0,0-34-44c-3.25-1-4.53-2.21-4.51-5.75a17.79,17.79,0,0,0-2.18-8.47c-2.24-4-7.43-5.38-11.86-3.94s-7.45,5.69-7.19,11.9c.19,4.36-1.62,5.71-5.37,7.2-19.5,7.73-30.53,22.36-31.61,43.24-1,19.19,7.68,33.94,24.07,44.07,8.51,5.26,18.06,6.18,27.71,7.26A26.76,26.76,0,0,1,346,403.74,27.48,27.48,0,0,1,319.58,430a27.09,27.09,0,0,1-27.74-24.14,30.88,30.88,0,0,0-1.46-7.31,10.28,10.28,0,0,0-11.86-6c-5.7,1.42-8.85,6-8.25,12.46,2,21.47,12.86,36.27,33.24,43.67,2.85,1,3.93,2.27,3.83,5.28a42.13,42.13,0,0,0,.72,9.9,10.07,10.07,0,0,0,9.87,7.68,10.23,10.23,0,0,0,10.15-8,21.16,21.16,0,0,0,.61-6.91c-.53-4.7,1.17-6.67,5.83-8.28,17.63-6.1,28.59-18.8,32-37,3.25-17.63-2.24-32.93-15.66-45-9.15-8.24-20.08-12-32.36-12.43-11.93-.44-21.78-7.49-25.21-18-3.63-11.1-1.5-21.11,7.12-29.23,8-7.56,17.79-9,27.86-5.43C339.1,305.12,344.85,313.51,346,325c.79,8.16,5,12.53,11.61,12.06,6.28-.44,9.88-5.23,9.55-12.72Z" transform="translate(0.04)"/><path class="cls-1" d="M139.87,223c-17.32,0-34.64.05-52,0-7,0-11.42-3.63-12-9.46a10.18,10.18,0,0,1,8.71-11.48,3.86,3.86,0,0,1,.49-.06,41.78,41.78,0,0,1,5.48-.21H191.46c8.46.08,13.57,4.12,13.51,10.66S199.83,223,191.32,223Z" transform="translate(0.04)"/><path class="cls-1" d="M367.16,324.34c.33,7.49-3.27,12.28-9.57,12.73-6.63.47-10.82-3.9-11.61-12.06-1.13-11.5-6.88-19.89-17.76-23.76-10.07-3.58-19.81-2.13-27.86,5.43-8.62,8.12-10.75,18.13-7.12,29.23,3.43,10.5,13.28,17.55,25.21,18,12.28.45,23.21,4.19,32.36,12.43,13.42,12.09,18.91,27.39,15.66,45-3.36,18.23-14.32,30.93-32,37-4.66,1.61-6.36,3.58-5.83,8.28a21.16,21.16,0,0,1-.61,6.91,10.23,10.23,0,0,1-10.15,8,10.07,10.07,0,0,1-9.87-7.68,42.13,42.13,0,0,1-.72-9.9c.1-3-1-4.25-3.83-5.28-20.38-7.4-31.28-22.2-33.24-43.67-.6-6.47,2.55-11,8.25-12.46a10.28,10.28,0,0,1,11.86,6,30.88,30.88,0,0,1,1.46,7.31A27.09,27.09,0,0,0,319.58,430,27.48,27.48,0,0,0,346,403.74a26.76,26.76,0,0,0-23.81-27.92c-9.65-1.08-19.2-2-27.71-7.26-16.39-10.13-25.06-24.88-24.07-44.07,1.08-20.88,12.11-35.51,31.61-43.24,3.75-1.49,5.56-2.84,5.37-7.2-.26-6.21,2.73-10.46,7.19-11.9s9.62,0,11.86,3.94a17.79,17.79,0,0,1,2.18,8.47c0,3.54,1.26,4.77,4.51,5.75A48,48,0,0,1,367.16,324.34Z" transform="translate(0.04)"/></svg>