<svg xmlns="http://www.w3.org/2000/svg" id="Layer_1" data-name="Layer 1" viewBox="0 0 512 458.1" class=""><path d="m200 130-30.35-30.31 84.7-86.12 169.41-2.12s36-4.94 26.83 144.71c0 0 0 62.11-34.59 83.29l-41.65-21.88-3.53-26.12-45.17-48-66.36-54.35-5.64-7.77z" style="fill:#ffc000" class=""/><path d="M0 261.1c2.54-13.45 10.94-23 20.31-32.35Q128.88 120.6 237 12.05c8.19-8.18 17.4-12.11 29-12 48.33.24 96.66.11 145 .14 28.87 0 47 18.24 47 47.21v32.13c4.25 0 8.19.22 12.09 0C489 78.27 505.27 84.3 512 108.1v11c-.69 2-1.28 4.08-2.09 6.06-5.39 13.19-15 21-29.38 22.09-7.26.55-14.6.1-22.56.1v46.91A33.27 33.27 0 0 1 447.84 219c-8.52 8.45-16.95 17-25.47 25.44-5.34 5.31-10.94 5.79-15.38 1.47s-4-10.29 1.43-15.74c8.11-8.15 16.2-16.33 24.42-24.37a16.26 16.26 0 0 0 5.16-12.5c-.13-14.5-.05-29-.06-43.5a19.29 19.29 0 0 0-.3-2c-1.69-.08-3.46-.23-5.23-.24-12.16 0-24.33-.17-36.5 0-15.28.26-26.61-5.91-33.88-19.53-.78-1.47-2.81-2.62-4.51-3.19-17.65-5.84-27.94-22.29-25.52-40.92 2.22-16.91 17.27-30.38 34.66-31C385.17 52.21 400.42 64 404.45 82a36.82 36.82 0 0 1-16.59 38.83c-1.4.87-2.82 1.69-5.18 3.1 3.11 1.3 5.44 3.1 7.81 3.14 15.62.25 31.26.13 47.49.13v-81c0-16.48-9.58-26.07-26.09-26.08q-73.24 0-146.5-.11a18 18 0 0 0-13.74 5.7q-111.45 111.63-223 223.14c-11.65 11.7-11.65 25.08.08 36.83q71.93 72 143.91 143.89c11.39 11.39 25 11.32 36.48-.14q69.13-69.1 138.24-138.24c6.8-6.79 12.42-7.67 17.18-2.68 4.4 4.62 3.35 10.39-3.08 16.83q-68.77 68.78-137.54 137.53c-20.28 20.27-46 20.31-66.23.09q-68.43-68.4-136.9-136.75C11.19 296.68 2.43 287 0 273.1zm458.4-161v27.12c7.56 0 14.73.39 21.83-.11 6.54-.47 11.38-6.3 11.72-12.87s-4.05-13.31-10.37-14c-7.67-.72-15.49-.12-23.18-.12zM382.75 81c-5-7-11.33-9.53-18.54-7.79a16.88 16.88 0 0 0-12.33 13.64c-1 7.38 1.66 13 8.33 16.93 3.85-10.95 11.2-18.61 22.54-22.78z" class="st-current" data-label="path"/><path d="m191.19 378.18 173.9-173.93L253.18 92.44c-.88.82-2.2 2-3.44 3.21l-90.51 90.49q-10.14 10.14-17.2 3.22-7.25-7.08 2.85-17.17l99-99c7.5-7.49 11.94-7.52 19.38-.09l122 122c7 7 7 11.64 0 18.67Q292.58 306.38 199.94 399c-6.78 6.79-11.53 6.81-18.27.08Q120.32 337.75 59 276.4c-6.83-6.83-6.83-11.46 0-18.27Q71.47 245.55 84 233c5.14-5.09 11.18-5.49 15.41-1.19s3.69 10.3-1.4 15.44c-6.44 6.5-13 12.9-19 18.82z"/><path d="M232.52 155.84a29.49 29.49 0 1 1-.07 0zm-.78 38.76a9.59 9.59 0 0 0 10.13-8.85 9.41 9.41 0 0 0-8.55-9.83 9.29 9.29 0 0 0-10.32 8.17v.32a9.48 9.48 0 0 0 8.69 10.19zM283.69 221.29c-.08 4.78-3.06 8.26-8.95 9.92q-26.61 7.51-53.27 14.87l-47.06 13.06c-4.64 1.28-8.63.24-11.48-3.75-2.45-3.43-2.81-7.33-.29-10.71a12.88 12.88 0 0 1 6.2-4.55q51-14.5 102.22-28.56a9.92 9.92 0 0 1 12.63 9.72zM198 286.44A29.47 29.47 0 1 1 227.34 316 29.46 29.46 0 0 1 198 286.44zm38.91-.22a9.45 9.45 0 1 0-18.9.19v.51a9.45 9.45 0 0 0 18.88-.7zM375.78 267.13a9.81 9.81 0 0 1 9.62-10 10 10 0 0 1 1.8 19.92 10.35 10.35 0 0 1-1.67 0 9.86 9.86 0 0 1-9.75-9.92zM120.51 220.38a9.67 9.67 0 0 1-9.69-9.67v-.24a9.85 9.85 0 0 1 9.78-9.9 10.13 10.13 0 0 1 10.06 10.2 9.94 9.94 0 0 1-10.15 9.61z"/><path d="M382.75 81c-11.34 4.15-18.69 11.81-22.54 22.78-6.67-3.93-9.34-9.55-8.33-16.93a16.88 16.88 0 0 1 12.33-13.64c7.21-1.72 13.51.79 18.54 7.79z" style="fill:#fdc040"/></svg>