<svg xmlns="http://www.w3.org/2000/svg" id="Layer_1" data-name="Layer 1" viewBox="0 0 384.01 315.12"><defs><style>.cls-2{fill:#ffc000;}</style></defs><path class="cls-1" d="M0,247.57c.62-2.79,1.17-5.59,1.89-8.36a59.64,59.64,0,0,1,23.34-34.27,6.55,6.55,0,0,0,3.06-6.16c-.1-18.51-.06-37-.05-55.51a35.41,35.41,0,0,1,.17-4.49,7.12,7.12,0,0,1,6.89-6.22A7,7,0,0,1,42.79,138a33.5,33.5,0,0,1,.43,6.71v50.92c23-5.6,43.38-1.4,60.19,15.06s21.48,36.82,16.37,60H290.33c6.89,0,8.38-1.48,8.39-8.32s0-13.45,0-19.72H198.79c-16.16,0-25.64-11.13-23.31-27.16.09-.6.09-1.21.13-1.8-16.73-4.92-21-11.2-19.88-29.33-16-3-23.67-10.32-23.62-22.56s7.61-19.4,23.44-22.53c0-3.75-.56-7.55.1-11.13,2-10.6,11-17.74,22-17.78,17.24-.06,34.49,0,51.74,0h4.33c-1.05-2.82-2.17-5.3-2.93-7.89-4.21-14.25,3.51-24.91,18.33-25.07,16.36-.17,32.72,0,49.43,0,0-.49.18-1.57.18-2.66V22.61c0-5.89-1.68-7.53-7.59-7.53H210.26v4.49c0,20.25.05,40.5,0,60.76,0,7.44-5.91,10.68-12.27,6.91-.64-.38-1.27-.79-1.91-1.18-7.51-4.71-15.07-9.35-22.52-14.16a4,4,0,0,0-5,0c-8,5.15-16.09,10.08-24.11,15.15-2.83,1.79-5.7,2.59-8.81.93s-3.93-4.55-3.93-7.9q.06-30,0-60V15.22c-1.51-.08-2.71-.21-3.9-.21H50.93c-6.08,0-7.68,1.62-7.69,7.82V69a36.11,36.11,0,0,1-.08,3.75c-.46,4.4-3.57,7.34-7.59,7.27a7.26,7.26,0,0,1-7.24-7.3v-.23c-.08-17.88-.25-35.76.12-53.63C28.66,8.54,37.48.44,47.79,0H291.9c10.8,0,18.79,5.77,21.17,15.46a30.9,30.9,0,0,1,.63,7.43q.07,29.07,0,58.14c0,2.5.89,3.91,2.78,5.56,6.18,5.43,12.06,11.22,18,16.91,2.35,2.25,4.56,4.64,6.89,6.89,5.92,5.72,12.71,9.1,21.26,8.27a32,32,0,0,1,8.57.36c6.91,1.21,10.57,6.06,12.81,12.27v77.26c-3.31,9.48-10.15,13.17-19.95,12.73-7.86-.35-15.74,0-23.61-.09a25.11,25.11,0,0,0-14.51,4.21,127.26,127.26,0,0,0-10.55,7.77,5.58,5.58,0,0,0-1.58,3.8c-.14,8.74,0,17.49-.1,26.23a29.79,29.79,0,0,1-.67,7.05c-2.49,9.73-10.54,15.42-21.63,15.42q-87.32,0-174.63-.05a6.21,6.21,0,0,0-5.75,3c-15.22,20.77-35.8,30-61,25.31C24.92,309.32,9,293.56,1.88,269,1.09,266.4.61,263.72,0,261.07ZM368.8,133.34c-5.34,0-10.36.49-15.26-.1C343.35,132,335.66,126,328.64,119c-5.77-5.71-11.32-11.66-17.21-17.24-5.45-5.17-11.8-9.16-19.54-9.31-14.37-.27-28.74-.15-43.12-.07-3.81,0-4.65,1.29-3.83,5a16.13,16.13,0,0,0,15.81,12.94c9,.14,18,0,27,.09,4.62,0,7.74,3.15,7.78,7.38s-3,7.33-7.61,7.56c-1.24.06-2.5,0-3.75,0H178.82c-5.47,0-8.63,2.68-8.62,7.18s3.13,7.11,8.64,7.12h42.37c4.83.12,8.17,3.18,8.23,7.42s-3.2,7.38-8,7.55H157.29a27.44,27.44,0,0,0-3.74.1,7.29,7.29,0,0,0-6.4,7.17,7.12,7.12,0,0,0,6.94,7c1.24.09,2.5.05,3.75.05h60.74a33.3,33.3,0,0,1,3.74.08c4.29.49,7.27,3.78,7.12,7.75a7.35,7.35,0,0,1-7.65,7.12c-14,.1-28,0-42,.08a15.24,15.24,0,0,0-5.15.67A7,7,0,0,0,176,198.11a23.54,23.54,0,0,0,4.11.19h38.62c7.06,0,10.75,2.63,10.7,7.61s-3.58,7.39-10.84,7.39h-18c-7.11,0-10.63,2.33-10.71,7.09s3.41,7.24,10.5,7.24c25.62,0,51.26-.57,76.85.23,13.89.44,25.94-2.14,36-12a19.22,19.22,0,0,1,2.74-2,42,42,0,0,1,25.33-7.75c8,.22,16-.09,24,.12,3.08.08,3.74-1,3.73-3.87-.11-21.75-.06-43.5-.07-65.25C369,136.19,368.9,135.2,368.8,133.34Zm-262,120.83a43.39,43.39,0,1,0,0,.17v-.17ZM146.9,67.65c6.21-3.87,12.12-7.27,17.72-11.14,4.4-3,8.28-3.07,12.69-.06,5.63,3.83,11.52,7.27,17.65,11.1V15.26H146.91Z"/><path class="cls-1" d="M28.3,106.41a7.26,7.26,0,0,1,6.92-7.58h.2a7.38,7.38,0,0,1,7.73,7c0,.13,0,.26,0,.39a7.52,7.52,0,0,1-7.38,7.47,7.36,7.36,0,0,1-7.48-7.24Z"/><path class="cls-2" d="M368.8,133.34c.1,1.86.19,2.85.19,3.83q0,32.63.07,65.25c0,2.87-.65,4-3.73,3.87-8-.21-16,.1-24-.12A42,42,0,0,0,316,213.92a19.22,19.22,0,0,0-2.74,2c-10.08,9.84-22.13,12.42-36,12-25.59-.8-51.23-.23-76.85-.23q-10.64,0-10.5-7.24c.08-4.76,3.6-7.08,10.71-7.09h18c7.26,0,10.79-2.41,10.84-7.39s-3.64-7.61-10.7-7.61H180.13a23.54,23.54,0,0,1-4.11-.19,7,7,0,0,1-1.37-13.47,15.24,15.24,0,0,1,5.15-.67c14-.05,28,0,42-.08a7.28,7.28,0,0,0,7.65-7.12c.15-4.06-2.83-7.26-7.12-7.75a33.3,33.3,0,0,0-3.74-.08H157.84c-1.25,0-2.51,0-3.75-.05a7.12,7.12,0,0,1-6.94-7,7.29,7.29,0,0,1,6.4-7.17,27.44,27.44,0,0,1,3.74-.1h64.08c4.84-.17,8.11-3.25,8-7.55s-3.4-7.3-8.23-7.42c-3.12-.07-6.25,0-9.37,0h-33c-5.51,0-8.63-2.63-8.64-7.12s3.15-7.18,8.62-7.18H287.92c4.6-.23,7.66-3.29,7.61-7.56s-3.16-7.33-7.78-7.38c-9-.11-18,0-27-.09a16.13,16.13,0,0,1-15.81-12.94c-.82-3.66,0-4.93,3.83-5,14.38-.08,28.75-.2,43.12.07,7.74.15,14.09,4.14,19.54,9.31,5.89,5.58,11.44,11.53,17.21,17.24,7,7,14.71,13,24.9,14.24C358.44,133.83,363.46,133.34,368.8,133.34Z"/><path class="cls-2" d="M146.91,67.65V15.26H195V67.55c-6.13-3.83-12-7.27-17.65-11.1-4.41-3-8.29-3-12.69.06C159,60.38,153.12,63.78,146.91,67.65Z"/><path class="cls-1" d="M54.51,257.6l15.36-18.3c1-1.24,2-2.52,3.14-3.71,3.21-3.48,7.35-4,10.66-1.32s3.74,7.32.72,11c-6.33,7.72-12.8,15.34-19.21,23-1.37,1.63-2.66,3.32-4.13,4.85-3,3.17-7,3.55-10.42.83-4.29-3.42-8.5-7-12.58-10.64a7.25,7.25,0,0,1-1.14-10.18l.19-.22c2.62-3.22,7.07-3.62,10.7-.85C50,253.71,52,255.54,54.51,257.6Z"/></svg>