<svg xmlns="http://www.w3.org/2000/svg" id="Layer_1" data-name="Layer 1" viewBox="0 0 510.14 510"><defs><style>.cls-2{fill:#ffc000;}</style></defs><path class="cls-1" d="M304.83,0C318,7.35,331,14.78,344.19,22q78.88,43.4,157.86,86.61c5.57,3,8.17,6.93,8.09,13.44-.27,21.58-.08,43.16-.12,64.74,0,6.45-3.44,10.71-8.86,11.34-6,.7-11-3.93-11-10.65-.1-15.11,0-30.21,0-45.32v-6c-2,1-3.47,1.62-4.87,2.38-16,8.77-31.92,17.65-48,26.25-3.2,1.72-4.45,3.6-4.41,7.28.19,17.92-.1,35.85.18,53.78.11,6.82-2.42,11.11-8.48,14.26-12.66,6.57-25,13.69-37.54,20.51-9.41,5.12-16.49.86-16.52-9.91V202c-1.77.8-3,1.24-4.06,1.84-17.16,9.4-34.34,18.75-51.39,28.34-1.62.92-3.37,3.37-3.37,5.12q-.26,94.36-.13,188.74a24.79,24.79,0,0,0,.37,2.84c1.63-.78,3-1.35,4.22-2q84.81-46.54,169.66-93c3.41-1.86,4.48-3.89,4.44-7.68-.26-19.2-.26-38.2-.11-57.34.05-8.44,8.06-13.8,14.51-9.41,2.59,1.76,5.08,5.78,5.13,8.82.43,22.9.25,45.81.23,68.72,0,4.92-2.94,7.75-7,10q-46.69,25.56-93.3,51.24Q359.34,425.85,309,453.56c-5.43,3-10,3-15.32-.09-11.46-6.66-23.2-12.86-34.83-19.23-1.57-.86-3.19-1.62-4.65-2.36-4.55,7.52-8.46,15-13.33,21.86-37.59,52.77-105.3,70.78-164.22,43.91-6.91-3.15-9.53-8.55-6.89-14.18s8.19-7.07,15.33-3.85C149.72,508.73,223.33,474.1,241.5,406c17.46-65.35-27.76-132.3-94.68-140.22C85.4,258.56,31.05,299.41,21.23,360.45c-3.46,21.5-.46,42.31,8.2,62.3.59,1.37,1.28,2.7,1.82,4.09,2.24,5.75.31,11.13-4.79,13.46s-11,.49-13.15-5.27C9.11,423.56,5.58,411.84,2,400.14.92,396.4.66,392.39,0,388.51V365.59a24.49,24.49,0,0,0,.91-3.25q11.75-79.89,86.86-109.43c4-1.58,5.09-3.36,5.08-7.41-.14-41.34,0-82.67-.13-124,0-5.29,1.61-9.21,6.46-11.88q60.36-33.18,120.66-66.5c26.29-14.46,52.67-28.75,79-43.11ZM291.26,429.27c.18-1.63.31-2.28.31-2.92q0-94.35.1-188.69c0-3.41-1.76-4.56-4.17-5.89q-85-46.62-170-93.3c-1.38-.76-2.83-1.36-4.53-2.18V246.1c1.91-.12,3.54-.21,5.15-.33,56.07-4.33,99.43,17.26,128.79,65,18.45,30,22.28,63,14.65,97.37-.36,1.61-.08,4.5.91,5.08C271.72,418.69,281.19,423.74,291.26,429.27ZM123.81,118.89c1.38.87,2.3,1.52,3.28,2.06l170.84,94c2.68,1.48,4.7,1.31,7.28-.13Q329.54,201.32,354,188c1.66-.92,3.28-1.93,5.29-3.12-1.48-.9-2.43-1.54-3.44-2.09-54.64-30-109.37-59.85-163.82-90.2-7.5-4.18-13-4.67-20.53-.09C156.12,101.79,140,110,123.81,118.89ZM245.65,52c1.09.77,1.47,1.1,1.9,1.33q86.49,47.52,173.06,94.9c1.56.85,4.5.47,6.2-.44,16.22-8.67,32.32-17.58,48.44-26.44,1.19-.65,2.29-1.48,3.67-2.38-1.38-.85-2.34-1.5-3.35-2.06-54-29.67-108.21-59.11-162-89.22-8.78-4.91-15.26-5.72-24-.12C275.6,36.45,260.67,43.74,245.65,52ZM402.56,161.21l-47.17-25.89q-63.64-34.95-127.33-69.86c-1.33-.73-3.39-1.7-4.42-1.19-6.89,3.46-13.6,7.3-21,11.35,2.25,1.33,3.74,2.28,5.29,3.13L288.59,123q43.82,24.08,87.65,48.09c1.68.91,4.32,1.86,5.74,1.18C388.65,169.1,395.06,165.33,402.56,161.21ZM413,178.27c-7.73,4.25-14.4,7.85-21,11.61a3.75,3.75,0,0,0-1.54,2.72c-.1,14.17-.07,28.34-.07,43.44,7.53-4.14,14.31-7.81,21-11.65a3.83,3.83,0,0,0,1.52-2.81C413,207.57,413,193.55,413,178.27Z"/><path class="cls-1" d="M99.62,365.18a62.37,62.37,0,0,1,6.46,5.35,10,10,0,0,1,0,13.92,9.56,9.56,0,0,1-13.5.48l-.37-.37Q79.88,372.65,68,360.27A9.39,9.39,0,0,1,67.79,347l.21-.21q12-12.36,24.34-24.28a9.56,9.56,0,0,1,13.52-.08l.33.34a9.86,9.86,0,0,1,.15,13.54c-2,2.17-4.56,3.78-6.87,5.64l.94,1.41c1.39.1,2.77.28,4.16.28,17.93,0,35.85-.1,53.78.05,23.69.21,42.41,17.38,45.28,41.25,2.64,22-12.28,43.22-34.44,48.82a45.43,45.43,0,0,1-10.31,1.43c-11.45.19-22.9.16-34.36.08-6.91-.05-11.15-4-11.12-10s4.22-9.81,11.23-9.85c11.29-.06,22.58.16,33.86-.09,13.64-.3,24.06-10.28,25.45-23.94,1.26-12.47-7.77-24.42-20.62-27.27a11.93,11.93,0,0,0-2.45-.4H100.68Z"/><path class="cls-1" d="M55.78,464.38a10,10,0,0,1-9.87,9.73,10.16,10.16,0,0,1-10-10.19,10,10,0,0,1,10.33-9.65h.1A9.88,9.88,0,0,1,55.78,464.38Z"/><path class="cls-1" d="M500,218.17a10,10,0,1,1-9.84,10.47c0-.19,0-.38,0-.57A10,10,0,0,1,500,218.17Z"/><path class="cls-2" d="M291.26,429.27c-10.07-5.53-19.54-10.58-28.79-16-1-.58-1.27-3.47-.91-5.08,7.63-34.36,3.8-67.36-14.65-97.37-29.36-47.77-72.72-69.36-128.79-65-1.61.12-3.24.21-5.15.33V136.29c1.7.82,3.15,1.42,4.53,2.18l170,93.3c2.41,1.33,4.18,2.48,4.17,5.89q-.18,94.35-.1,188.69C291.57,427,291.44,427.64,291.26,429.27Z"/></svg>