<svg xmlns="http://www.w3.org/2000/svg" id="Layer_1" data-name="Layer 1" viewBox="0 0 506.22 506.25"><defs><style>.cls-2{fill:#ffc000;}</style></defs><path class="cls-1" d="M310.06,0c5.09,3.1,6.48,7.66,6.44,13.49-.2,33.3-.09,66.6-.1,99.9,0,10.06-3,13-13.17,13H202.81c-9.78,0-12.84-3-12.85-12.82,0-33.13.11-66.27-.11-99.4,0-6,1.31-10.67,6.15-14.17ZM210.82,20.18a13.38,13.38,0,0,0-.54,2.16q0,40-.13,79.93c0,3.87,2.19,3.74,4.83,3.74,25.32,0,50.63-.07,76,.06,3.82,0,5.21-1,5.19-5q-.24-38,0-75.94c0-4-1.39-5-5.19-5-20.16.15-40.31.07-60.46.07Z" transform="translate(0)"/><path class="cls-1" d="M72,0l8.09,2.17C111.2,10.49,131.23,42,125.74,74.06c-5.41,31.59-34.38,54.41-66.28,52.22A63.23,63.23,0,0,1,.1,66.34C-1.65,34.81,20.6,6.9,52.21,1A18.17,18.17,0,0,0,55,0ZM63.33,19.92a43.38,43.38,0,1,0,0,86.76h0c23.8,0,43.76-20,43.58-43.72A43.56,43.56,0,0,0,63.33,19.92Z" transform="translate(0)"/><path class="cls-1" d="M208.23,357c-6.77-8.57-12-17.33-13.43-27.59-2.91-21.58-3.59-42.93,10.23-61.83a59.7,59.7,0,0,1,108,35c0,11.29,1.43,22.82-3,33.6-3,7.13-6.88,13.87-10,20.08,8.71,2.13,18.39,3.76,27.55,6.91,16,5.53,28.66,16,38.56,29.73,4.31,6,3.83,11.79-1.11,15.44-4.78,3.53-10.78,2-15-3.68q-20.25-27.45-54.38-27.54H277.55l9.73,9.83c6.16,6.23,6.73,12.07-.27,17.38C277,412,275.6,420.66,278.36,432.41c3.88,16.49,5.94,33.42,8.55,50.19.47,3,1.6,3.83,4.46,3.82,22.33-.09,44.67,0,67-.17,1.43,0,3.41-1.5,4.17-2.84,2.3-4.06,5.53-6.25,10.13-5.89,4.8.36,8.2,3.64,8.9,8.69a47.78,47.78,0,0,1,.24,10c-.46,6.48-4.21,9.93-10.77,10-12.83.09-25.66,0-38.5,0h-194c-10.75,0-13.51-2.79-13.51-13.65,0-17.83-.35-35.67.15-53.49A84,84,0,0,1,200.54,358C202.75,357.68,205.06,357.36,208.23,357Zm10.66,129.15a30.52,30.52,0,0,0,1-3.51c3.08-18.54,5.57-37.19,9.43-55.56,1.81-8.59.36-14.67-6.63-19.67a30.18,30.18,0,0,1-3.9-3.85c-5.19-5.33-5.3-10.43,0-15.63,3.27-3.19,6.92-6,10.4-8.95l-1.28-1.82H208.64c-30.26.12-58.49,22.85-62.43,52.83-2.38,18.17-1,36.84-1.28,55.29,0,.25.37.51.65.86ZM293.13,310v-7.5c-.13-20.2-16.15-37.71-36-39.37C236,261.28,217,275.54,214,296.14a121.63,121.63,0,0,0-.78,22.41,40,40,0,0,0,71.48,23.39c7.49-9.43,9.3-20.37,8.43-32Zm-45,123.71c-2.87,17.5-5.74,34.89-8.61,52.35H267.3l-8.71-52.35Zm-7.73-38.11,13,13.1,13.5-12.89L253.49,382.5Z" transform="translate(0)"/><path class="cls-1" d="M438.91,122.75h-54c-4.51,0-8.68-.79-11.13-5.2a10,10,0,0,1,.28-10.43C393,74.4,411.77,41.62,430.8,9c4.38-7.51,13.42-6.79,18,1.18q23.26,40.2,46.43,80.45c2.92,5,5.87,10.07,8.76,15.13,5.22,9.16,1,16.9-9.6,17C475.92,122.85,457.41,122.75,438.91,122.75Zm.52-88.11c-13.15,22.79-25.74,44.58-38.6,66.87h77.23C465.1,79.06,452.55,57.34,439.43,34.64Z" transform="translate(0)"/><path class="cls-1" d="M53.23,187c-4.95,3.5-9.17,4.4-13.54,1.81-4.75-2.82-6.13-9-2.76-14q9-13.22,18.56-26a9.53,9.53,0,0,1,13.29-2.3A9.38,9.38,0,0,1,71,148.69c6.57,8.6,12.8,17.46,19,26.37,2.76,4,2.34,8.27-.82,12-3,3.51-7.91,4.21-12.32,2-.87-.44-1.68-1-3-1.85V294H159.9c7.55,0,12,3.55,12,9.6s-4.65,10.17-12.23,10.18H66.19c-9.4,0-12.95-3.5-13-13q-.06-53.73,0-107.47Z" transform="translate(0)"/><path class="cls-1" d="M432.74,187.53c-2.43.89-4.64,2.06-7,2.48-4,.7-7.87-.71-9.18-4.39-1.11-3.11-1.62-7.75-.06-10.26,5.78-9.32,12.35-18.17,19-26.93a9.51,9.51,0,0,1,13.33-1.8,9.62,9.62,0,0,1,1.87,1.9c6.54,8.62,12.76,17.49,18.89,26.41a9.58,9.58,0,0,1-1.09,12.39c-3.24,3.34-7.88,3.92-12.38,1.53-.83-.44-1.6-1-3.08-2v114c0,9.46-3.45,12.92-13,12.92H347c-7.79,0-12-3.29-12.33-9.38-.32-6.3,3.73-10.37,10.6-10.39q40-.06,80,0h7.4Z" transform="translate(0)"/><path class="cls-1" d="M263.1,187.11v24.4c0,7.71-3.91,12.41-10,12.23s-9.92-4.84-9.94-12.47V187.2c-1.5.78-2.55,1.4-3.65,1.9-4.38,2-8.54,1.68-11.88-1.93s-3.86-8-1.18-12q9.21-13.65,19.17-26.79A9.57,9.57,0,0,1,259,146.65a9.86,9.86,0,0,1,1.81,1.84c6.54,8.6,12.78,17.45,18.93,26.35a9.8,9.8,0,0,1-1.07,12.43c-3.52,3.46-7.64,3.6-12,1.72A32.56,32.56,0,0,1,263.1,187.11Z" transform="translate(0)"/><path class="cls-1" d="M381.41,442.78a9.57,9.57,0,0,1-9.15,10h-.35a9.87,9.87,0,0,1-10.08-9.66v-.39a9.68,9.68,0,0,1,9.66-9.7h.2a9.46,9.46,0,0,1,9.72,9.19A5.23,5.23,0,0,1,381.41,442.78Z" transform="translate(0)"/><path class="cls-2" d="M210.82,20.18h19.65c20.15,0,40.3.08,60.46-.07,3.8,0,5.21.92,5.19,5q-.24,38,0,75.94c0,4-1.37,5.07-5.19,5-25.32-.13-50.63-.08-76-.06-2.64,0-4.85.13-4.83-3.74.13-26.64.09-53.29.13-79.93A12.35,12.35,0,0,1,210.82,20.18Z" transform="translate(0)"/><path class="cls-2" d="M439.43,34.64c13.12,22.7,25.67,44.42,38.63,66.87H400.83C413.69,79.22,426.28,57.43,439.43,34.64Z" transform="translate(0)"/></svg>